<svg viewBox="0 0 400 400" xmlns="http://www.w3.org/2000/svg">
<rect width="400" height="400" fill="#F5F1F0"/>
<g transform="translate(80,50) rotate(8)">
<rect x="20" y="0" width="240" height="16" rx="8" fill="#4F7460"/>
<rect x="0" y="22" width="240" height="16" rx="8" fill="#3C5A48"/>
<rect x="20" y="44" width="240" height="16" rx="8" fill="#E8AE3D"/>
<rect x="0" y="66" width="240" height="16" rx="8" fill="#4F7460"/>
<rect x="20" y="88" width="240" height="16" rx="8" fill="#4F7460"/>
<rect x="0" y="110" width="240" height="16" rx="8" fill="#3C5A48"/>
<rect x="20" y="132" width="240" height="16" rx="8" fill="#E8AE3D"/>
<rect x="0" y="154" width="240" height="16" rx="8" fill="#4F7460"/>
<rect x="20" y="176" width="240" height="16" rx="8" fill="#4F7460"/>
<rect x="0" y="198" width="240" height="16" rx="8" fill="#3C5A48"/>
<rect x="20" y="220" width="240" height="16" rx="8" fill="#E8AE3D"/>
<rect x="0" y="242" width="240" height="16" rx="8" fill="#4F7460"/>
<rect x="20" y="264" width="240" height="16" rx="8" fill="#4F7460"/>
<rect x="0" y="286" width="240" height="16" rx="8" fill="#3C5A48"/>
</g></svg>